<?xml version="1.0" encoding="UTF-8"?>
<svg id="_レイヤー_2" data-name=" レイヤー 2" xmlns="http://www.w3.org/2000/svg" version="1.1" viewBox="0 0 300 300">
  <defs>
    <style>
      .cls-1 {
        fill: #999;
        stroke-width: 0px;
      }
    </style>
  </defs>
  <g id="icon-qiita">
    <g>
      <path class="cls-1" d="M222.8,227.4c-16.2,17.3-38.2,22.9-64.8,25.6-53.9,5.4-100.6-18.6-106.2-78.7-2.4-25.6,3.3-49.9,14.8-69.8l-6.7-26.3c-1.1-4.6,3.1-8.9,7.6-7.8l23.1,5.6c13.7-11.3,30.3-18.6,48.6-20.5,15.7-1.6,30.8,1,44.6,7l21.7-13.1c4.1-2.5,9.2.3,9.6,5.2l1.2,30.9h0c16.7,17.6,28,41.7,30.6,68.9,1.4,15.4-.1,27.2-4.2,38.5-1.9,5.3-2.5,9.7,1,14.1,3.3,4.3,8.6,12.5,14.5,11.1,8.9-2.1,18.4-1.5,24.3,2.1,11.2-21,17.5-45,17.5-70.4,0-82.8-67.2-150-150-150S0,67.2,0,150s67.2,150,150,150,80.8-17.7,108.1-46c-4.8-.7-9.7-2.6-14.3-5.7-8.9-5.9-16.9-11.6-21-20.9h0Z"/>
      <path class="cls-1" d="M208.9,117.4l14-1.7-.2-2.5-14.4,1.8c-.6-1.8-1.3-3.6-2.1-5.3l15.8-5.1-.5-3.2-16.8,5.8c-11.3-23.7-35.7-38.1-63.4-35.3-27.6,2.8-49.5,22.7-56.2,48.1l-16.5-2.5-.2,3.2,16.2,1.8c-.4,1.9-.8,3-1.1,4.9l-14.2,1.1v2.5c.1,0,13.9-1.1,13.9-1.1-.2,2.1-.4,3.5-.4,5.7l-12.6,5.1.6,3.1,12-5.6c0,1.7,0,2.6.3,4.3,3.3,35.5,33,42.5,68.4,38.9,35.4-3.6,63.1-16.4,59.8-51.9-.2-1.7-.4-2.6-.7-4.2l13,2.8.3-2.9-13.6-2.6c-.4-2.1-1-3.4-1.6-5.4h0Z"/>
    </g>
  </g>
</svg>